<svg width="21" height="23" viewBox="0 0 21 23" fill="none" xmlns="http://www.w3.org/2000/svg">
<path d="M16.9603 12.8969C16.9453 12.8894 16.919 12.8744 16.8889 12.8593C15.8523 13.4565 15.4316 13.8209 14.2485 14.0612C10.9809 14.6509 10.5978 9.50154 14.534 11.6499C14.857 11.7964 16.472 12.6415 16.8927 12.8593C16.8965 12.8593 16.9002 12.8556 16.9002 12.8556C17.6927 12.3974 19.0524 11.5861 19.5068 11.1316C20.9003 10.1438 21.6364 7.3231 20.2843 6.00852C19.6721 5.37377 19.3641 5.12587 18.6167 5.00568C17.6026 4.81789 16.1453 5.91838 15.3753 6.3766C15.3603 6.38411 15.3377 6.40289 15.3002 6.42543C15.2964 6.82731 15.2964 7.22544 15.3114 7.6123C15.349 9.24989 14.4438 11.3269 12.472 10.7335C11.5067 10.4518 11.364 9.55788 11.9161 8.848C12.2541 8.39354 12.7537 8.06677 13.2006 7.77756C13.4222 7.6123 14.9208 6.66581 15.2964 6.42543C15.3114 4.62258 15.3866 2.75588 14.2297 1.36994C13.0241 -0.1099 11.3564 -0.391595 9.83154 0.528609C8.61462 1.28731 8.89631 3.33429 8.92636 4.49488C8.93012 4.52117 8.93012 4.55122 8.93387 4.57751C9.96675 5.1747 10.4926 5.35874 11.2888 6.26392C13.0954 8.25457 10.3536 10.9588 9.33576 8.72406C8.91885 7.65362 9.0165 5.678 8.93012 4.57751C8.92636 4.57375 8.9226 4.57375 8.91885 4.57C7.92728 3.9728 6.93196 3.41692 5.94039 3.12772C4.34788 2.56433 1.71872 3.29298 1.2605 5.08831C0.389121 7.47333 2.34972 8.27335 4.03613 9.15599C4.05116 9.1635 4.07745 9.17853 4.1075 9.19355C5.14413 8.59636 5.5648 8.23203 6.74792 7.99165C10.0118 7.40197 10.4024 12.5514 6.46247 10.403C6.13946 10.2565 4.52065 9.41139 4.10374 9.19355C4.09998 9.19355 4.09623 9.19731 4.09623 9.19731C3.30373 9.65553 1.94408 10.4668 1.48961 10.9213C0.0999137 11.9091 -0.636249 14.7298 0.715887 16.0444C1.3281 16.6791 1.63609 16.927 2.38352 17.0472C3.39762 17.235 4.85493 16.1345 5.62489 15.6763C5.63992 15.6688 5.66245 15.65 5.70001 15.6275C5.70377 15.2256 5.70377 14.8275 5.68874 14.4406C5.65119 12.803 6.55637 10.726 8.52823 11.3157C9.49351 11.5973 9.63623 12.4875 9.08411 13.2011C8.74607 13.6556 8.24654 13.9824 7.79958 14.2716C7.57798 14.4368 6.07936 15.3871 5.70377 15.6237C5.68874 17.4266 5.61363 19.2933 6.77045 20.6792C7.97986 22.159 9.6475 22.4407 11.1687 21.5168C12.3856 20.7581 12.1001 18.7111 12.0738 17.5505C12.0701 17.5242 12.0701 17.4942 12.0663 17.4679C11.0297 16.8744 10.5076 16.6904 9.70759 15.789C7.89723 13.7983 10.6428 11.0941 11.6569 13.3251C12.0738 14.3918 11.9762 16.3711 12.0626 17.4716C12.0663 17.4754 12.0701 17.4754 12.0738 17.4791C13.0654 18.0726 14.0607 18.6322 15.0523 18.9214C16.6448 19.4848 19.2702 18.7599 19.7322 16.9646C20.6073 14.5833 18.643 13.7795 16.9603 12.8969Z" fill="#D42C29"/>
</svg>
